HIERARCHY
ROOT hip
{
  OFFSET 0 0 0
  CHANNELS 6 Xposition Yposition Zposition Zrotation Yrotation Xrotation
  JOINT abdomen
  {
    OFFSET 0 20.6881 -0.73152
    CHANNELS 3 Zrotation Xrotation Yrotation
    JOINT chest
    {
      OFFSET 0 11.7043 -0.48768
      CHANNELS 3 Zrotation Xrotation Yrotation
      JOINT neck
      {
        OFFSET 0 22.1894 -2.19456
        CHANNELS 3 Zrotation Xrotation Yrotation
        JOINT head
        {
          OFFSET -0.24384 7.07133 1.2192
          CHANNELS 3 Zrotation Xrotation Yrotation
          JOINT leftEye
          {
            OFFSET 4.14528 8.04674 8.04672
            CHANNELS 3 Zrotation Xrotation Yrotation
            End Site
            {
              OFFSET 1 0 0
            }
          }
          JOINT rightEye
          {
            OFFSET -3.6576 8.04674 8.04672
            CHANNELS 3 Zrotation Xrotation Yrotation
            End Site
            {
              OFFSET 1 0 0
            }
          }
        }
      }
      JOINT rCollar
      {
        OFFSET -2.68224 19.2634 -4.8768
        CHANNELS 3 Zrotation Xrotation Yrotation
        JOINT rShldr
        {
          OFFSET -8.77824 -1.95073 1.46304
          CHANNELS 3 Zrotation Xrotation Yrotation
          JOINT rForeArm
          {
            OFFSET -28.1742 -1.7115 0.48768
            CHANNELS 3 Zrotation Xrotation Yrotation
            JOINT rHand
            {
              OFFSET -22.5879 0.773209 7.07136
              CHANNELS 3 Zrotation Xrotation Yrotation
              JOINT rThumb1
              {
                OFFSET -1.2192 -0.487915 3.41376
                CHANNELS 3 Zrotation Xrotation Yrotation
                JOINT rThumb2
                {
                  OFFSET -3.37035 -0.52449 3.41376
                  CHANNELS 3 Zrotation Xrotation Yrotation
                  End Site
                  {
                    OFFSET -1.78271 -1.18214 1.43049
                  }
                }
              }
              JOINT rIndex1
              {
                OFFSET -7.75947 0.938293 5.60832
                CHANNELS 3 Zrotation Xrotation Yrotation
                JOINT rIndex2
                {
                  OFFSET -2.54057 -0.884171 1.56538
                  CHANNELS 3 Zrotation Xrotation Yrotation
                  End Site
                  {
                    OFFSET -1.62519 -0.234802 1.16502
                  }
                }
              }
              JOINT rMid1
              {
                OFFSET -8.24714 1.18213 3.41376
                CHANNELS 3 Zrotation Xrotation Yrotation
                JOINT rMid2
                {
                  OFFSET -3.10165 -0.590103 1.0647
                  CHANNELS 3 Zrotation Xrotation Yrotation
                  End Site
                  {
                    OFFSET -2.48547 -0.328903 0.83742
                  }
                }
              }
              JOINT rRing1
              {
                OFFSET -8.82822 0.546677 1.51678
                CHANNELS 3 Zrotation Xrotation Yrotation
                JOINT rRing2
                {
                  OFFSET -2.60934 -0.819778 -0.0198488
                  CHANNELS 3 Zrotation Xrotation Yrotation
                  End Site
                  {
                    OFFSET -2.33842 -0.294052 0.168128
                  }
                }
              }
              JOINT rPinky1
              {
                OFFSET -8.27202 -0.0477905 -0.4584
                CHANNELS 3 Zrotation Xrotation Yrotation
                JOINT rPinky2
                {
                  OFFSET -1.82734 -0.647385 -0.700984
                  CHANNELS 3 Zrotation Xrotation Yrotation
                  End Site
                  {
                    OFFSET -1.69225 -0.51767 -0.607171
                  }
                }
              }
            }
          }
        }
      }
      JOINT lCollar
      {
        OFFSET 2.68224 19.2634 -4.8768
        CHANNELS 3 Zrotation Xrotation Yrotation
        JOINT lShldr
        {
          OFFSET 8.77824 -1.95073 1.46304
          CHANNELS 3 Zrotation Xrotation Yrotation
          JOINT lForeArm
          {
            OFFSET 28.1742 -1.7115 0.48768
            CHANNELS 3 Zrotation Xrotation Yrotation
            JOINT lHand
            {
              OFFSET 22.5879 0.773209 7.07136
              CHANNELS 3 Zrotation Xrotation Yrotation
              JOINT lThumb1
              {
                OFFSET 1.2192 -0.487915 3.41376
                CHANNELS 3 Zrotation Xrotation Yrotation
                JOINT lThumb2
                {
                  OFFSET 3.37035 -0.52449 3.41376
                  CHANNELS 3 Zrotation Xrotation Yrotation
                  End Site
                  {
                    OFFSET 1.78271 -1.18214 1.43049
                  }
                }
              }
              JOINT lIndex1
              {
                OFFSET 7.75947 0.938293 5.60832
                CHANNELS 3 Zrotation Xrotation Yrotation
                JOINT lIndex2
                {
                  OFFSET 2.54057 -0.884171 1.56538
                  CHANNELS 3 Zrotation Xrotation Yrotation
                  End Site
                  {
                    OFFSET 1.62519 -0.234802 1.16502
                  }
                }
              }
              JOINT lMid1
              {
                OFFSET 8.24714 1.18213 3.41376
                CHANNELS 3 Zrotation Xrotation Yrotation
                JOINT lMid2
                {
                  OFFSET 3.10165 -0.590103 1.0647
                  CHANNELS 3 Zrotation Xrotation Yrotation
                  End Site
                  {
                    OFFSET 2.48547 -0.328903 0.83742
                  }
                }
              }
              JOINT lRing1
              {
                OFFSET 8.82822 0.546677 1.51678
                CHANNELS 3 Zrotation Xrotation Yrotation
                JOINT lRing2
                {
                  OFFSET 2.60934 -0.819778 -0.0198488
                  CHANNELS 3 Zrotation Xrotation Yrotation
                  End Site
                  {
                    OFFSET 2.33842 -0.294052 0.168128
                  }
                }
              }
              JOINT lPinky1
              {
                OFFSET 8.27202 -0.0477905 -0.4584
                CHANNELS 3 Zrotation Xrotation Yrotation
                JOINT lPinky2
                {
                  OFFSET 1.82734 -0.647385 -0.700984
                  CHANNELS 3 Zrotation Xrotation Yrotation
                  End Site
                  {
                    OFFSET 1.69225 -0.51767 -0.607171
                  }
                }
              }
            }
          }
        }
      }
    }
  }
  JOINT rButtock
  {
    OFFSET -8.77824 4.35084 1.2192
    CHANNELS 3 Zrotation Xrotation Yrotation
    JOINT rThigh
    {
      OFFSET 0 -1.70687 -2.19456
      CHANNELS 3 Zrotation Xrotation Yrotation
      JOINT rShin
      {
        OFFSET 0 -36.8199 0.73152
        CHANNELS 3 Zrotation Xrotation Yrotation
        JOINT rFoot
        {
          OFFSET 0.73152 -45.1104 -5.12064
          CHANNELS 3 Zrotation Xrotation Yrotation
          End Site
          {
            OFFSET -1.1221 -3.69964 12.103
          }
        }
      }
    }
  }
  JOINT lButtock
  {
    OFFSET 8.77824 4.35084 1.2192
    CHANNELS 3 Zrotation Xrotation Yrotation
    JOINT lThigh
    {
      OFFSET 0 -1.70687 -2.19456
      CHANNELS 3 Zrotation Xrotation Yrotation
      JOINT lShin
      {
        OFFSET 0 -36.8199 0.73152
        CHANNELS 3 Zrotation Xrotation Yrotation
        JOINT lFoot
        {
          OFFSET -0.73152 -45.1104 -5.12064
          CHANNELS 3 Zrotation Xrotation Yrotation
          End Site
          {
            OFFSET 1.1221 -3.69964 12.103
          }
        }
      }
    }
  }
}
MOTION
Frames:	7
Frame Time:	0.00833333
-218.329 83.185 -88.2954 0.0 0.0 0.0 -3.13119 0.00208552 -0.0845027 -0.863225 0.0181966 -0.149331 2.18413e-14 0.0 -4.47265e-16 6.63692e-14 3.18055e-15 -1.29521e-15 -0.0 0.0 0.0 -0.0 0.0 0.0 1.10329e-14 2.20915e-16 9.93923e-17 2.34925e-13 4.64038e-15 -2.98177e-15 4.04129e-12 -1.03368e-12 -1.145e-13 4.6027e-11 2.07484e-12 -8.11041e-13 1.08609e-10 2.26356e-12 -1.96876e-12 1.87557e-10 3.91526e-12 -3.4183e-12 1.08611e-10 2.26535e-12 -1.98785e-12 7.73091 5.47488 0.417314 1.08608e-10 2.26316e-12 -1.97512e-12 2.90554 0.965183 0.102902 1.0861e-10 2.26336e-12 -1.97353e-12 10.2786 0.731801 0.0259123 1.08604e-10 2.26455e-12 -1.9624e-12 2.22167 -0.733487 -0.20892 1.08342e-14 2.25768e-16 -3.97569e-16 2.32359e-13 4.63417e-15 -4.17448e-15 4.00506e-12 1.36923e-12 -1.20861e-13 4.60434e-11 -3.25261e-13 -7.69694e-13 1.08574e-10 2.27081e-12 -1.9624e-12 1.87509e-10 3.92799e-12 -3.39763e-12 1.08571e-10 2.26972e-12 -1.95286e-12 -7.73091 5.47488 -0.417314 1.08575e-10 2.26972e-12 -1.97194e-12 -2.90554 0.965183 -0.102902 1.08568e-10 2.27102e-12 -1.96558e-12 -10.2786 0.731801 -0.0259123 1.08582e-10 2.27529e-12 -1.97512e-12 -2.22167 -0.733487 0.20892 -2.03217e-16 0.0 -3.88251e-19 -1.91893 -1.93503 0.014627 -0.00849957 -2.07867 -0.0697518 -0.458506 4.00011 0.132435 2.03217e-16 0.0 3.88251e-19 -2.83837 -9.32624 0.322367 -0.00902399 11.3079 -0.235071 0.527505 -1.99508 -0.018376
-212.876 81.6768 -92.9883 8.6666 68.1932 10.1807 -4.25194 1.94474 0.618754 0.117414 1.88759 -0.0232338 1.45871 -4.26507 4.13581 -4.61748 0.818051 7.54905 -0.0 0.0 0.0 -0.0 0.0 0.0 1.90585e-14 -1.64456e-13 3.96055e-14 22.5378 9.80123 0.129046 -20.471 -18.2515 15.1508 0.199385 -9.9331 -1.32144 -4.8404e-10 4.395e-10 -5.31275e-10 -8.19964e-10 7.67984e-10 -9.32397e-10 -4.84038e-10 4.395e-10 -5.31293e-10 7.73091 5.47488 0.417314 -4.84039e-10 4.39498e-10 -5.31276e-10 2.90554 0.965183 0.102902 -4.84037e-10 4.39499e-10 -5.3128e-10 10.2786 0.731801 0.0259123 -4.84046e-10 4.39501e-10 -5.31271e-10 2.22167 -0.733487 -0.20892 1.88838e-14 -1.6445e-13 3.91765e-14 -24.1579 15.0712 -0.78885 26.972 -24.558 -13.7438 -0.0274274 -3.67499 0.512655 7.32328e-11 -1.01378e-09 6.23741e-10 1.20243e-10 -1.7543e-09 1.07805e-09 7.32314e-11 -1.01378e-09 6.23748e-10 -7.73091 5.47488 -0.417314 7.3235e-11 -1.01378e-09 6.2373e-10 -2.90554 0.965183 -0.102902 7.32278e-11 -1.01378e-09 6.23736e-10 -10.2786 0.731801 -0.0259123 7.32419e-11 -1.01378e-09 6.23728e-10 -2.22167 -0.733487 0.20892 -2.03217e-16 0.0 -3.88251e-19 -2.43687 -5.10657 1.4755 0.045561 8.23352 0.144323 -1.47707 -1.65723 -7.12688 2.03217e-16 0.0 3.88251e-19 -3.0934 -11.7303 -0.231318 0.0185833 19.0947 -0.326891 0.197507 -5.51797 -2.14068
-212.882 81.669 -92.9895 8.6829 68.1514 10.218 -5.48627 4.00002 1.36333 1.14206 3.86487 0.110108 3.6765 -8.69494 8.58637 -9.73415 1.62522 15.5378 -0.0 0.0 0.0 -0.0 0.0 0.0 3.20076e-14 -3.48699e-13 7.36435e-14 46.3137 20.1619 0.280397 -30.4425 -33.0302 36.0518 -0.118288 -20.418 -2.85755 -1.10659e-09 9.1544e-10 -1.10222e-09 -1.87777e-09 1.59923e-09 -1.93408e-09 -1.10659e-09 9.15438e-10 -1.10224e-09 7.73091 5.47488 0.417314 -1.10659e-09 9.15436e-10 -1.10221e-09 2.90554 0.965183 0.102902 -1.10659e-09 9.15437e-10 -1.10222e-09 10.2786 0.731801 0.0259123 -1.1066e-09 9.15441e-10 -1.10222e-09 2.22167 -0.733487 -0.20892 3.18571e-14 -3.48691e-13 7.32863e-14 -49.1731 30.9905 -1.83119 38.5694 -45.1161 -37.8725 0.0156522 -7.55865 1.06161 5.33034e-11 -2.13611e-09 1.30294e-09 7.92294e-11 -3.69636e-09 2.25203e-09 5.33035e-11 -2.13611e-09 1.30295e-09 -7.73091 5.47488 -0.417314 5.33066e-11 -2.13611e-09 1.30293e-09 -2.90554 0.965183 -0.102902 5.32988e-11 -2.13611e-09 1.30294e-09 -10.2786 0.731801 -0.0259123 5.33136e-11 -2.13611e-09 1.30293e-09 -2.22167 -0.733487 0.20892 -2.03217e-16 0.0 -3.88251e-19 -2.80228 -8.44531 3.05481 0.0148416 19.128 0.38859 -4.1028 -7.37622 -14.9422 2.03217e-16 0.0 3.88251e-19 -3.41541 -14.2632 -0.836484 0.0788449 27.3195 -0.440917 -0.437878 -9.22675 -4.41798
-212.887 81.66 -92.9957 8.7547 68.1073 10.3117 -6.63709 5.82675 2.03472 2.05393 5.62634 0.230106 6.24526 -12.5256 12.6796 -14.4809 2.28466 22.6638 -0.0 0.0 0.0 -0.0 0.0 0.0 3.51097e-14 -4.93811e-13 1.18618e-13 67.4643 29.403 0.437893 -29.939 -37.5423 59.5395 -0.952017 -29.7309 -4.49797 -1.66934e-09 1.31397e-09 -1.58989e-09 -2.83501e-09 2.29612e-09 -2.79035e-09 -1.66934e-09 1.31397e-09 -1.5899e-09 7.73091 5.47488 0.417314 -1.66933e-09 1.31397e-09 -1.58988e-09 2.90554 0.965183 0.102902 -1.66933e-09 1.31397e-09 -1.58989e-09 10.2786 0.731801 0.0259123 -1.66935e-09 1.31397e-09 -1.58989e-09 2.22167 -0.733487 -0.20892 3.49832e-14 -4.93802e-13 1.18325e-13 -70.7885 45.1719 -3.24229 31.2569 -50.2634 -71.9815 0.11814 -11.0214 1.56365 2.55084e-12 -3.04588e-09 1.87515e-09 -1.4288e-11 -5.27076e-09 3.24095e-09 2.5522e-12 -3.04588e-09 1.87515e-09 -7.73091 5.47488 -0.417314 2.55479e-12 -3.04588e-09 1.87513e-09 -2.90554 0.965183 -0.102902 2.54649e-12 -3.04588e-09 1.87514e-09 -10.2786 0.731801 -0.0259123 2.56177e-12 -3.04588e-09 1.87513e-09 -2.22167 -0.733487 0.20892 -2.03217e-16 0.0 -3.88251e-19 -2.97931 -11.4208 4.46834 -0.102329 28.8564 0.648435 -7.78068 -12.0796 -22.1514 2.03217e-16 0.0 3.88251e-19 -3.74854 -16.5341 -1.37243 0.167259 34.6676 -0.566226 -1.26051 -12.4967 -6.51042
-212.894 81.6235 -93.0039 8.824 68.0864 10.4105 -7.47768 7.08526 2.51403 2.70129 6.84837 0.315542 8.36607 -15.1151 15.6211 -17.8794 2.73159 27.6182 -0.0 0.0 0.0 -0.0 0.0 0.0 1.35938e-14 -5.41097e-13 1.90933e-13 82.165 35.8459 0.561698 -28.4124 -34.5736 74.6415 -1.92843 -36.1782 -5.89918 -2.08256e-09 1.51899e-09 -1.86937e-09 -3.54079e-09 2.6571e-09 -3.28311e-09 -2.08256e-09 1.51898e-09 -1.86938e-09 7.73091 5.47488 0.417314 -2.08255e-09 1.51898e-09 -1.86936e-09 2.90554 0.965183 0.102902 -2.08255e-09 1.51898e-09 -1.86938e-09 10.2786 0.731801 0.0259123 -2.08257e-09 1.51899e-09 -1.86937e-09 2.22167 -0.733487 -0.20892 1.34914e-14 -5.41087e-13 1.90684e-13 -85.1443 55.0448 -4.83706 26.8831 -44.3214 -92.0853 0.226633 -13.4353 1.92395 -1.2526e-10 -3.42425e-09 2.17986e-09 -2.39064e-10 -5.92603e-09 3.76724e-09 -1.25258e-10 -3.42425e-09 2.17986e-09 -7.73091 5.47488 -0.417314 -1.25255e-10 -3.42425e-09 2.17984e-09 -2.90554 0.965183 -0.102902 -1.25264e-10 -3.42425e-09 2.17985e-09 -10.2786 0.731801 -0.0259123 -1.25249e-10 -3.42425e-09 2.17984e-09 -2.22167 -0.733487 0.20892 -2.03217e-16 0.0 -3.88251e-19 -3.04247 -13.5159 5.40286 -0.24927 35.6709 0.873867 -11.109 -15.1404 -27.2991 2.03217e-16 0.0 3.88251e-19 -4.00282 -18.1541 -1.70759 0.25505 39.8244 -0.67381 -1.98344 -14.731 -8.02809
-212.919 81.5785 -92.9955 8.7392 67.9179 10.4211 -7.83828 7.53878 2.69623 3.01499 7.32414 0.343708 9.23878 -16.1774 16.7687 -19.2234 3.03096 29.5273 -0.0 0.0 0.0 -0.0 0.0 0.0 -5.02524e-14 -4.58662e-13 3.25382e-13 87.8597 38.4163 0.607635 -28.3206 -32.236 79.4468 -2.41382 -38.6393 -6.51822 -2.37069e-09 1.48891e-09 -1.91153e-09 -4.0386e-09 2.61116e-09 -3.36261e-09 -2.37069e-09 1.4889e-09 -1.91154e-09 7.73091 5.47488 0.417314 -2.37069e-09 1.4889e-09 -1.91151e-09 2.90554 0.965183 0.102902 -2.37069e-09 1.4889e-09 -1.91153e-09 10.2786 0.731801 0.0259123 -2.3707e-09 1.48891e-09 -1.91152e-09 2.22167 -0.733487 -0.20892 -5.03282e-14 -4.58652e-13 3.25153e-13 -90.5801 58.9134 -5.67208 26.9222 -40.5886 -97.4544 0.277767 -14.3826 2.06823 -4.02871e-10 -3.09466e-09 2.15881e-09 -7.20853e-10 -5.35694e-09 3.72992e-09 -4.02869e-10 -3.09466e-09 2.15881e-09 -7.73091 5.47488 -0.417314 -4.02867e-10 -3.09466e-09 2.1588e-09 -2.90554 0.965183 -0.102902 -4.02877e-10 -3.09466e-09 2.1588e-09 -10.2786 0.731801 -0.0259123 -4.02862e-10 -3.09466e-09 2.1588e-09 -2.22167 -0.733487 0.20892 -2.03217e-16 0.0 -3.88251e-19 -3.10742 -14.3978 5.63124 -0.326278 38.4061 0.982813 -12.6707 -16.6129 -29.1799 2.03217e-16 0.0 3.88251e-19 -4.10072 -18.8729 -1.74604 0.29855 41.9142 -0.723177 -2.3045 -15.5503 -8.66537
-212.906 81.5365 -93.0173 8.8235 68.0338 10.5711 -7.84538 7.41854 2.66542 3.09083 7.26647 0.331066 9.07781 -16.2016 16.5849 -19.0554 3.25753 29.2589 -0.0 0.0 0.0 -0.0 0.0 0.0 -1.4396e-13 -2.83225e-13 5.03077e-13 87.1417 38.2188 0.583656 -28.3111 -32.5117 78.9281 -2.34256 -38.2731 -6.42499 -2.56547e-09 1.28919e-09 -1.78159e-09 -4.381e-09 2.27153e-09 -3.14239e-09 -2.56547e-09 1.28919e-09 -1.78159e-09 7.73091 5.47488 0.417314 -2.56547e-09 1.28918e-09 -1.78157e-09 2.90554 0.965183 0.102902 -2.56546e-09 1.28919e-09 -1.78159e-09 10.2786 0.731801 0.0259123 -2.56548e-09 1.28919e-09 -1.78158e-09 2.22167 -0.733487 -0.20892 -1.44008e-13 -2.83215e-13 5.02851e-13 -90.1886 58.5153 -5.45755 26.8712 -41.0281 -96.9255 0.27207 -14.2832 2.05299 -7.85486e-10 -2.25768e-09 1.90277e-09 -1.38274e-09 -3.91034e-09 3.28602e-09 -7.85486e-10 -2.25768e-09 1.90277e-09 -7.73091 5.47488 -0.417314 -7.85483e-10 -2.25767e-09 1.90276e-09 -2.90554 0.965183 -0.102902 -7.85494e-10 -2.25768e-09 1.90276e-09 -10.2786 0.731801 -0.0259123 -7.8548e-10 -2.25768e-09 1.90275e-09 -2.22167 -0.733487 0.20892 -2.03217e-16 0.0 -3.88251e-19 -3.20971 -14.4174 5.34324 -0.318248 38.2279 0.982729 -12.6587 -17.1531 -28.6211 2.03217e-16 0.0 3.88251e-19 -4.07625 -18.948 -1.56865 0.297078 41.8135 -0.719919 -2.27593 -15.3717 -8.65265
